<svg xmlns="http://www.w3.org/2000/svg" width="68.91" height="34.34" viewBox="0 0 68.91 34.34"><path d="M32.77,7.64a.59.59,0,0,1,0,.13V15a.53.53,0,0,1-.27.46L26.44,19v6.94a.54.54,0,0,1-.26.46l-12.7,7.3-.09,0,0,0a.66.66,0,0,1-.28,0,.05.05,0,0,0,0,0,.2.2,0,0,1-.08,0L.27,26.38A.53.53,0,0,1,0,25.92V4.18A.68.68,0,0,1,0,4,.08.08,0,0,1,0,4l0-.08,0,0,0-.06.06,0,.05,0h0L6.61.07a.55.55,0,0,1,.53,0l6.34,3.65h0l0,0,.06,0,0,.06,0,0,0,.08,0,0a.78.78,0,0,1,0,.14V17.76L19,14.71V7.77a.3.3,0,0,1,0-.13s0,0,0,0,0-.06,0-.08l0,0,.05-.06,0,0,.06,0h0l6.35-3.66a.55.55,0,0,1,.53,0l6.34,3.66.06,0,.05,0,0,.06,0,0,0,.08S32.77,7.62,32.77,7.64Zm-1,7.07v-6L29.51,10l-3.07,1.76v6l5.29-3.05Zm-6.35,10.9v-6l-3,1.73-8.62,4.91v6.09ZM1.06,5.1V25.61l11.63,6.7V26.23L6.61,22.79h0l-.06,0,0,0h0l0-.06a.1.1,0,0,1,0-.05h0l0-.07,0-.06h0a.17.17,0,0,0,0-.07v-.06h0V8.14L3.28,6.37,1.06,5.1Zm5.82-4-5.29,3L6.87,7.23l5.29-3.05-5.29-3Zm2.74,19,3.07-1.76V5.1L10.47,6.38,7.4,8.14V21.41ZM25.91,4.73l-5.28,3,5.28,3.05L31.2,7.77Zm-.53,7L22.32,10,20.1,8.69v6l3.06,1.77,2.22,1.28ZM13.22,25.31,21,20.88l3.88-2.21-5.28-3-6.08,3.5L7.94,22.32Z" fill="#ff2d20" fill-rule="evenodd"/><path d="M56.36,15.86H49.78v3.27H56.2a1.53,1.53,0,0,0,1-.42,1.66,1.66,0,0,0,.41-1.15,2,2,0,0,0-.35-1.18A1.15,1.15,0,0,0,56.36,15.86Zm.22-4A1.35,1.35,0,0,0,57,10.73a1.52,1.52,0,0,0-.35-1.08,1.24,1.24,0,0,0-.83-.33h-6v2.94H55.7A1.49,1.49,0,0,0,56.58,11.9Z" fill="#0ab3af"/><path d="M67.59,0H41a1.5,1.5,0,0,0-1.52,1.47V27.78A1.36,1.36,0,0,0,41,29.08H44.9v5.26l4.88-5.22H67.59a1.23,1.23,0,0,0,1.32-1.34V1.51A1.37,1.37,0,0,0,67.56,0ZM63.12,21.32a4.11,4.11,0,0,1-1.46,1.47,6.69,6.69,0,0,1-2.16.94,11,11,0,0,1-2.61.37h-12V5.35H58.51a3.58,3.58,0,0,1,1.8.44,4.7,4.7,0,0,1,1.35,1.07,4.94,4.94,0,0,1,1.15,3.25,5.19,5.19,0,0,1-.67,2.51,4.22,4.22,0,0,1-2,1.8A5,5,0,0,1,62.68,16a5,5,0,0,1,.91,3.15,4.37,4.37,0,0,1-.5,2.14Z" fill="#0ab3af"/></svg>