<?xml version="1.0" encoding="UTF-8"?>
<svg width="144px" height="65px" viewBox="0 0 144 65" version="1.1" xmlns="http://www.w3.org/2000/svg" xmlns:xlink="http://www.w3.org/1999/xlink">
    <title>storyblok-ambassador-asset-vert-color</title>
    <g id="storyblok-ambassadors-kit" stroke="none" stroke-width="1" fill="none" fill-rule="evenodd">
        <g id="storyblok-partner-logo" transform="translate(-38.000000, -104.000000)">
            <g id="storyblok-ambassador-asset-vert-color" transform="translate(38.000000, 104.000000)">
                <rect id="Rectangle" fill="#FFFFFF" x="0" y="0" width="144" height="65" rx="5"></rect>
                <path d="M139,0 C141.761424,0 144,2.23857625 144,5 L144,60 C144,62.7614237 141.761424,65 139,65 L5,65 C2.23857625,65 0,62.7614237 0,60 L0,5 C0,2.23857625 2.23857625,0 5,0 L139,0 Z M139,2 L5,2 C3.34314575,2 2,3.34314575 2,5 L2,60 C2,61.6568542 3.34314575,63 5,63 L139,63 C140.656854,63 142,61.6568542 142,60 L142,5 C142,3.34314575 140.656854,2 139,2 Z" id="Rectangle" fill="#0AB3AF" fill-rule="nonzero"></path>
                <path d="M143.5,38.5 L143.5,59 C143.5,60.2426407 142.99632,61.3676407 142.181981,62.1819805 C141.367641,62.9963203 140.242641,63.5 139,63.5 L5,63.5 C3.75735931,63.5 2.63235931,62.9963203 1.81801948,62.1819805 C1.00367966,61.3676407 0.5,60.2426407 0.5,59 L0.5,38.5 L143.5,38.5 Z" id="Rectangle-Copy" stroke="#0AB3AF" fill="#0AB3AF"></path>
                <g id="Group-3" transform="translate(17.000000, 9.000000)">
                    <rect id="Rectangle" fill="#FFFFFF" x="2.37393162" y="2.76558704" width="16.9418803" height="14.805668"></rect>
                    <g id="colored-full" transform="translate(0.380769, -0.195547)" fill-rule="nonzero">
                        <g id="text" transform="translate(27.539207, 3.056042)" fill="#1B243F">
                            <path d="M4.31544173,13.0188223 C3.51628585,13.0188223 2.739963,12.9063972 1.96364015,12.6590621 C1.23512415,12.4265964 0.565578167,12.0432586 0,11.5348114 L1.02748613,9.82595048 C1.59831175,10.2081957 2.14630435,10.5005009 2.69429695,10.725351 C3.21945653,10.9502011 3.7446161,11.0401412 4.24694265,11.0401412 C4.61227105,11.0401412 4.90910038,10.9726861 5.1145976,10.837776 C5.32009483,10.725351 5.41142693,10.5229859 5.41142693,10.2756507 C5.41142693,10.0508006 5.2972618,9.82595048 5.0232655,9.6910404 C4.59414134,9.48851299 4.14184594,9.3375294 3.67611703,9.24134015 L2.07780528,8.72418487 C1.6439778,8.54430476 1.30148243,8.36442466 1.02748613,8.16205955 C0.753489826,7.98217945 0.5479926,7.73484431 0.433827475,7.48750918 C0.309550921,7.20364498 0.247314805,6.89720731 0.251163275,6.58810867 C0.237797195,5.70304158 0.632418126,4.85968331 1.32431545,4.29463739 C1.6439778,4.02481724 2.05497225,3.82245213 2.51163275,3.66505704 C2.96829325,3.50766196 3.4706198,3.44020692 3.99577938,3.44020692 C4.70360315,3.44020692 5.36576088,3.53014697 5.98225256,3.71002707 C6.59874423,3.91239218 7.19240288,4.24966737 7.76322851,4.74433765 L6.64441028,6.43071359 C6.20244272,6.11932303 5.72784834,5.85549033 5.22876273,5.64373815 C4.79493525,5.46385805 4.40677383,5.39640301 3.99577938,5.39640301 C3.69895005,5.39640301 3.42495375,5.44137303 3.21945653,5.57628311 C2.99112628,5.68870817 2.89979418,5.89107329 2.89979418,6.16089344 C2.89979418,6.43071359 3.0139593,6.61059369 3.24228955,6.74550376 C3.4706198,6.88041384 3.9272803,7.01532391 4.54377198,7.172719 C5.11612673,7.31468582 5.68018125,7.48732799 6.23341583,7.68987429 C6.69007633,7.86975439 7.05540473,8.0721195 7.35223406,8.27448461 C7.91357235,8.68155463 8.22384346,9.34356244 8.17422296,10.0283156 C8.17422296,10.9502011 7.83172758,11.6697215 7.12390381,12.2093618 C6.43891306,12.7490021 5.52559205,13.0188223 4.31544173,13.0188223 Z M15.6177891,12.3667569 C15.2296277,12.524152 14.7729672,12.6815471 14.2706406,12.8164571 C13.7683141,12.9513672 13.2659875,13.0413073 12.740828,13.0413073 C12.3754996,13.0413073 12.0558372,12.9963372 11.7361749,12.9063972 C11.4253784,12.8171703 11.1374024,12.6638801 10.8913529,12.4566969 C10.6630227,12.2768168 10.4803585,12.0069967 10.3433603,11.7146915 C10.2063622,11.3999014 10.1150301,11.0176561 10.1150301,10.5679559 L10.1150301,5.7336782 L8.92771278,5.7336782 L8.92771278,3.62008702 L10.1378631,3.62008702 L10.1378631,0.674550376 L12.9691582,0.674550376 L12.9691582,3.59760201 L14.8871323,3.59760201 L14.8871323,5.7336782 L12.9691582,5.7336782 L12.9691582,9.60110035 C12.9691582,9.89340552 13.0376573,10.1182556 13.1974885,10.2756507 C13.3573196,10.3880758 13.5628169,10.4555308 13.7911471,10.4555308 C14.0194774,10.4555308 14.2478076,10.4330458 14.4533048,10.3431058 C14.6816351,10.2756507 14.8871323,10.2081957 15.0469635,10.1182556 L15.5949561,12.3667569 L15.6177891,12.3667569 Z M20.960717,13.0188223 C20.2341582,13.0313138 19.512332,12.9013782 18.8372456,12.636577 C17.6490378,12.173699 16.718424,11.2327221 16.2799468,10.0508006 C15.8313526,8.87679085 15.8313526,7.58223833 16.2799468,6.40822857 C16.718424,5.22630713 17.6490378,4.28533013 18.8372456,3.82245213 C19.4537373,3.57511699 20.1615611,3.44020692 20.960717,3.44020692 C22.3506397,3.37577854 23.7004347,3.90910838 24.659667,4.90173273 C25.0934945,5.32894797 25.4131568,5.84610326 25.6414871,6.40822857 C26.1088812,7.58656251 26.1088812,8.89495168 25.6414871,10.0732856 C25.200222,11.2406287 24.2802456,12.1710684 23.1070213,12.636577 C22.4248236,12.9043301 21.6949337,13.0343195 20.960717,13.0188223 Z M18.9057447,8.2519996 C18.9057447,8.97152 19.0884089,9.55613033 19.4765703,9.98334557 C19.8875648,10.4330458 20.3898913,10.6578959 20.98355,10.6578959 C21.5570774,10.6688079 22.1040355,10.4202134 22.4676966,9.98334557 C22.6503608,9.75849544 22.787359,9.53364532 22.9015241,9.21885514 C23.0156892,8.92654998 23.0613553,8.58927479 23.0613553,8.2519996 C23.0613553,7.50999419 22.855858,6.92538386 22.4676966,6.49816862 C22.0795352,6.04846837 21.5772086,5.82361334 20.98355,5.82361334 C20.4121169,5.82234445 19.8691537,6.06912333 19.4994034,6.49816862 C19.3167392,6.72301875 19.156908,6.94786887 19.0427429,7.26265905 C18.9397942,7.58226086 18.8934522,7.91692262 18.9057447,8.2519996 Z M33.3590496,6.02598336 C32.6740588,6.02598336 32.0347341,6.13840842 31.4639085,6.36325855 C30.9614009,6.53010894 30.5335385,6.86400185 30.2537582,7.30762908 L30.2537582,12.8614272 L27.39963,12.8614272 L27.39963,3.62008702 L30.0254279,3.62008702 L30.0254279,5.46385805 C30.3450903,4.8342777 30.7560847,4.33960742 31.2812443,4.00233223 C31.7835708,3.64257203 32.3087304,3.46269193 32.879556,3.44020692 L33.1763854,3.44020692 L33.3590496,3.46269193 L33.3590496,6.00349835 L33.3590496,6.02598336 Z M34.6148659,14.2330129 C35.0119455,14.3689463 35.4276716,14.4447592 35.8478493,14.4578631 C36.1903447,14.4578631 36.464341,14.345438 36.6698382,14.1205879 C36.8525024,13.8957377 37.0123336,13.4460375 37.1721647,12.8614272 L33.6102128,3.62008702 L36.5556731,3.62008702 L38.7248104,10.4330458 L40.6199515,3.62008702 L43.2914154,3.62008702 L39.7066305,14.345438 C39.1443257,16.1671371 37.2591782,17.2614448 35.3683558,16.8637594 C35.1400255,16.8187894 34.8660292,16.7513343 34.6148659,16.6389093 L34.6148659,14.2330129 Z M50.0499908,13.0188905 C49.3421671,13.0188905 48.7028424,12.8839122 48.1776828,12.569122 C47.6441166,12.2804992 47.2016888,11.8525948 46.8990334,11.3324463 L46.8990334,12.8614272 L44.4102337,12.8614272 L44.4102337,0 L47.2871948,0 L47.2871948,5.12658286 C47.9117376,4.05035379 49.0886778,3.40165877 50.3468202,3.44020692 C50.9404788,3.44020692 51.4884714,3.55263198 51.990798,3.82245213 C52.4931245,4.04730226 52.904119,4.40706246 53.2922804,4.8342777 C54.4162326,6.37026922 54.7220648,8.34461053 54.1142693,10.1407407 C53.885939,10.725351 53.5662767,11.2425063 53.1781153,11.6697215 C52.3764039,12.53528 51.2396364,13.0255463 50.0499908,13.0188905 Z M49.250835,10.6579007 C50.1776791,10.6598189 51.0033649,10.0816138 51.3058072,9.21885514 C51.640609,8.3130657 51.4765549,7.30122955 50.8719797,6.54313865 C50.5150219,6.08023657 49.9551386,5.81291545 49.3650001,5.82361825 C48.9311726,5.82361825 48.5201782,5.98101334 48.1320167,6.2733185 C47.7666883,6.58810867 47.469859,6.97035389 47.2643618,7.44253915 L47.2643618,9.37625023 C47.6328418,10.1412681 48.4138635,10.6307066 49.273668,10.6354109 L49.250835,10.6579007 Z M55.8267462,0 L58.6808743,0 L58.6808743,9.55613033 C58.6808743,10.2756507 58.9777036,10.6129259 59.5941953,10.6129259 C59.9201475,10.6138604 60.2414374,10.5366914 60.5303493,10.3880758 L60.9185108,12.479182 C60.1188133,12.8240888 59.257004,13.0075858 58.384045,13.0188223 C57.5620561,13.0188223 56.9227314,12.7939721 56.4889039,12.3892419 C56.0322434,11.9395417 55.8039132,11.3549313 55.8039132,10.5454709 L55.8039132,0 L55.8267462,0 Z M66.3071047,13.0188223 C65.5805459,13.0313138 64.8587198,12.9013782 64.1836333,12.636577 C62.9884044,12.1765498 62.0496097,11.2357013 61.6035015,10.0508006 C60.9432316,8.28357805 61.3105725,6.3026106 62.5624886,4.87924772 C63.0191491,4.42954747 63.5214756,4.09227228 64.1608003,3.82245213 C64.777292,3.57511699 65.4851158,3.44020692 66.2842716,3.44020692 C67.6741944,3.37577854 69.0239894,3.90910838 69.9832217,4.90173273 C70.4398822,5.32894797 70.7367115,5.84610326 70.9650418,6.40822857 C71.6513778,8.17315377 71.2815301,10.1676399 70.0060547,11.5797815 C69.5722272,12.0294817 69.0470677,12.3892419 68.407743,12.636577 C67.7326565,12.9013782 67.0108304,13.0313138 66.2842716,13.0188223 L66.3071047,13.0188223 Z M64.2292994,8.2519996 C64.2292994,8.97152 64.4119636,9.55613033 64.800125,9.98334557 C65.2111195,10.4330458 65.713446,10.6578959 66.3071047,10.6578959 C66.8799234,10.6655007 67.4254943,10.4175366 67.7912513,9.98334557 C67.9739155,9.75849544 68.1109136,9.53364532 68.2250788,9.21885514 C68.3392439,8.92654998 68.3849099,8.58927479 68.3849099,8.2519996 C68.3849099,7.50999419 68.1794127,6.92538386 67.7912513,6.49816862 C67.4030899,6.04846837 66.9007633,5.82361334 66.3071047,5.82361334 C65.7356714,5.82234445 65.1927083,6.06912333 64.822958,6.49816862 C64.6402938,6.72301875 64.4804627,6.94786887 64.3662975,7.26265905 C64.2521324,7.57744923 64.2292994,7.8922394 64.2292994,8.2519996 Z M79.0479326,12.8614272 L76.6047989,9.12891509 L75.6001458,10.1632257 L75.6001458,12.8614272 L72.7460177,12.8614272 L72.7460177,0 L75.6001458,0 L75.6001458,7.44253915 L78.7739363,3.62008702 L81.8107286,3.62008702 L78.4314409,7.59993424 L82.0847249,12.8614272 L79.0479326,12.8614272 Z" id="Shape"></path>
                        </g>
                        <g id="icon" fill="#0AB3AF">
                            <path d="M11.4825031,10.4654722 L6.92156663,10.4654722 L6.92156663,12.5585666 L11.3728652,12.5585666 C11.6359961,12.5585666 11.8771995,12.4539119 12.0745477,12.2864644 C12.2499683,12.1190168 12.3596062,11.8678455 12.3596062,11.5538813 C12.365966,11.2845149 12.2814016,11.0203374 12.1184029,10.8003673 C11.9429822,10.5910579 11.745634,10.4654722 11.4825031,10.4654722 Z M11.6359961,7.93282792 C11.8333443,7.80724225 11.9210547,7.53513998 11.9210547,7.17931392 C11.9210547,6.86534976 11.8333443,6.63510937 11.6798513,6.48859276 C11.5263582,6.36300709 11.32901,6.27928331 11.1097342,6.27928331 L6.92156663,6.27928331 L6.92156663,8.16306831 L11.0220239,8.16306831 C11.2412997,8.16306831 11.4605755,8.05841359 11.6359961,7.93282792 Z" id="Shape"></path>
                            <path d="M18.8883784,0 L1.02406871,0 C0.455141649,0 0,0.442534587 0,0.97357609 L0,18.3651853 C0,18.8962268 0.455141649,19.2281278 1.00131163,19.2281278 L3.64113319,19.2281278 L3.64113319,22.7020243 L6.91815307,19.2502545 L18.8883784,19.2502545 C19.4345484,19.2502545 19.7759047,18.9183536 19.7759047,18.3651853 L19.7759047,0.99570282 C19.7759047,0.464661316 19.4345484,0.0221267293 18.8656214,0.0221267293 L18.8883784,0 Z M15.8844436,14.0947266 C15.6568727,14.4930077 15.3155165,14.8249087 14.905889,15.0683027 C14.4735044,15.3338234 13.9956057,15.5772174 13.4494357,15.6878511 C12.9032658,15.8206115 12.3115816,15.9312451 11.6971404,15.9312451 L3.64113319,15.9312451 L3.64113319,3.54027669 L12.7894803,3.54027669 C13.244622,3.54027669 13.6314924,3.62878361 13.9956057,3.82792417 C14.3369619,4.00493801 14.6555611,4.24833203 14.905889,4.53597951 C15.4157258,5.14048346 15.6897371,5.90056801 15.6796298,6.68227226 C15.6796298,7.25756722 15.5203302,7.81073545 15.2244882,8.34177696 C14.9177742,8.87591879 14.4375832,9.2961199 13.8590632,9.53662034 C14.5872899,9.7357609 15.1562169,10.0897886 15.5886015,10.5987033 C15.998229,11.1297449 16.2030427,11.8156735 16.2030427,12.6786159 C16.2030427,13.2317841 16.0892573,13.6964455 15.8616865,14.0947266 L15.8844436,14.0947266 Z" id="Shape"></path>
                        </g>
                    </g>
                </g>
                <g id="AMBASSADOR" transform="translate(32.105469, 46.351562)" fill="#FFFFFF" fill-rule="nonzero">
                    <path d="M5.53710938,6.66210938 L2.23242188,6.66210938 L1.54101562,8.6484375 L0,8.6484375 L3.22265625,0.1171875 L4.55273438,0.1171875 L7.78125,8.6484375 L6.234375,8.6484375 L5.53710938,6.66210938 Z M2.6484375,5.46679688 L5.12109375,5.46679688 L3.88476562,1.92773438 L2.6484375,5.46679688 Z" id="Shape"></path>
                    <polygon id="Path" points="10.6699219 0.1171875 13.1308594 6.65625 15.5859375 0.1171875 17.5019531 0.1171875 17.5019531 8.6484375 16.0253906 8.6484375 16.0253906 5.8359375 16.171875 2.07421875 13.6523438 8.6484375 12.5917969 8.6484375 10.078125 2.08007812 10.2246094 5.8359375 10.2246094 8.6484375 8.74804688 8.6484375 8.74804688 0.1171875"></polygon>
                    <path d="M19.2539062,8.6484375 L19.2539062,0.1171875 L22.1777344,0.1171875 C23.1425781,0.1171875 23.8769531,0.310546875 24.3808594,0.697265625 C24.8847656,1.08398438 25.1367188,1.66015625 25.1367188,2.42578125 C25.1367188,2.81640625 25.03125,3.16796875 24.8203125,3.48046875 C24.609375,3.79296875 24.3007812,4.03515625 23.8945312,4.20703125 C24.3554688,4.33203125 24.7119141,4.56738281 24.9638672,4.91308594 C25.2158203,5.25878906 25.3417969,5.67382812 25.3417969,6.15820312 C25.3417969,6.95898438 25.0849609,7.57421875 24.5712891,8.00390625 C24.0576172,8.43359375 23.3222656,8.6484375 22.3652344,8.6484375 L19.2539062,8.6484375 Z M20.7363281,4.79882812 L20.7363281,7.46484375 L22.3828125,7.46484375 C22.8476562,7.46484375 23.2109375,7.34960938 23.4726562,7.11914062 C23.734375,6.88867188 23.8652344,6.56835938 23.8652344,6.15820312 C23.8652344,5.27148438 23.4121094,4.81835938 22.5058594,4.79882812 L20.7363281,4.79882812 Z M20.7363281,3.70898438 L22.1894531,3.70898438 C22.6503906,3.70898438 23.0107422,3.60449219 23.2705078,3.39550781 C23.5302734,3.18652344 23.6601562,2.890625 23.6601562,2.5078125 C23.6601562,2.0859375 23.5400391,1.78125 23.2998047,1.59375 C23.0595703,1.40625 22.6855469,1.3125 22.1777344,1.3125 L20.7363281,1.3125 L20.7363281,3.70898438 Z" id="Shape"></path>
                    <path d="M31.5996094,6.66210938 L28.2949219,6.66210938 L27.6035156,8.6484375 L26.0625,8.6484375 L29.2851562,0.1171875 L30.6152344,0.1171875 L33.84375,8.6484375 L32.296875,8.6484375 L31.5996094,6.66210938 Z M28.7109375,5.46679688 L31.1835938,5.46679688 L29.9472656,1.92773438 L28.7109375,5.46679688 Z" id="Shape"></path>
                    <path d="M39.2695312,6.45117188 C39.2695312,6.07617188 39.1376953,5.78710938 38.8740234,5.58398438 C38.6103516,5.38085938 38.1347656,5.17578125 37.4472656,4.96875 C36.7597656,4.76171875 36.2128906,4.53125 35.8066406,4.27734375 C35.0292969,3.7890625 34.640625,3.15234375 34.640625,2.3671875 C34.640625,1.6796875 34.9208984,1.11328125 35.4814453,0.66796875 C36.0419922,0.22265625 36.7695312,0 37.6640625,0 C38.2578125,0 38.7871094,0.109375 39.2519531,0.328125 C39.7167969,0.546875 40.0820312,0.858398438 40.3476562,1.26269531 C40.6132812,1.66699219 40.7460938,2.11523438 40.7460938,2.60742188 L39.2695312,2.60742188 C39.2695312,2.16210938 39.1298828,1.81347656 38.8505859,1.56152344 C38.5712891,1.30957031 38.171875,1.18359375 37.6523438,1.18359375 C37.1679688,1.18359375 36.7919922,1.28710938 36.5244141,1.49414062 C36.2568359,1.70117188 36.1230469,1.99023438 36.1230469,2.36132812 C36.1230469,2.67382812 36.2675781,2.93457031 36.5566406,3.14355469 C36.8457031,3.35253906 37.3222656,3.55566406 37.9863281,3.75292969 C38.6503906,3.95019531 39.1835938,4.17480469 39.5859375,4.42675781 C39.9882812,4.67871094 40.2832031,4.96777344 40.4707031,5.29394531 C40.6582031,5.62011719 40.7519531,6.00195312 40.7519531,6.43945312 C40.7519531,7.15039062 40.4794922,7.71582031 39.9345703,8.13574219 C39.3896484,8.55566406 38.6503906,8.765625 37.7167969,8.765625 C37.0996094,8.765625 36.5322266,8.65136719 36.0146484,8.42285156 C35.4970703,8.19433594 35.0947266,7.87890625 34.8076172,7.4765625 C34.5205078,7.07421875 34.3769531,6.60546875 34.3769531,6.0703125 L35.859375,6.0703125 C35.859375,6.5546875 36.0195312,6.9296875 36.3398438,7.1953125 C36.6601562,7.4609375 37.1191406,7.59375 37.7167969,7.59375 C38.2324219,7.59375 38.6201172,7.48925781 38.8798828,7.28027344 C39.1396484,7.07128906 39.2695312,6.79492188 39.2695312,6.45117188 Z" id="Path"></path>
                    <path d="M46.5117188,6.45117188 C46.5117188,6.07617188 46.3798828,5.78710938 46.1162109,5.58398438 C45.8525391,5.38085938 45.3769531,5.17578125 44.6894531,4.96875 C44.0019531,4.76171875 43.4550781,4.53125 43.0488281,4.27734375 C42.2714844,3.7890625 41.8828125,3.15234375 41.8828125,2.3671875 C41.8828125,1.6796875 42.1630859,1.11328125 42.7236328,0.66796875 C43.2841797,0.22265625 44.0117188,0 44.90625,0 C45.5,0 46.0292969,0.109375 46.4941406,0.328125 C46.9589844,0.546875 47.3242188,0.858398438 47.5898438,1.26269531 C47.8554688,1.66699219 47.9882812,2.11523438 47.9882812,2.60742188 L46.5117188,2.60742188 C46.5117188,2.16210938 46.3720703,1.81347656 46.0927734,1.56152344 C45.8134766,1.30957031 45.4140625,1.18359375 44.8945312,1.18359375 C44.4101562,1.18359375 44.0341797,1.28710938 43.7666016,1.49414062 C43.4990234,1.70117188 43.3652344,1.99023438 43.3652344,2.36132812 C43.3652344,2.67382812 43.5097656,2.93457031 43.7988281,3.14355469 C44.0878906,3.35253906 44.5644531,3.55566406 45.2285156,3.75292969 C45.8925781,3.95019531 46.4257812,4.17480469 46.828125,4.42675781 C47.2304688,4.67871094 47.5253906,4.96777344 47.7128906,5.29394531 C47.9003906,5.62011719 47.9941406,6.00195312 47.9941406,6.43945312 C47.9941406,7.15039062 47.7216797,7.71582031 47.1767578,8.13574219 C46.6318359,8.55566406 45.8925781,8.765625 44.9589844,8.765625 C44.3417969,8.765625 43.7744141,8.65136719 43.2568359,8.42285156 C42.7392578,8.19433594 42.3369141,7.87890625 42.0498047,7.4765625 C41.7626953,7.07421875 41.6191406,6.60546875 41.6191406,6.0703125 L43.1015625,6.0703125 C43.1015625,6.5546875 43.2617188,6.9296875 43.5820312,7.1953125 C43.9023438,7.4609375 44.3613281,7.59375 44.9589844,7.59375 C45.4746094,7.59375 45.8623047,7.48925781 46.1220703,7.28027344 C46.3818359,7.07128906 46.5117188,6.79492188 46.5117188,6.45117188 Z" id="Path"></path>
                    <path d="M54.0703125,6.66210938 L50.765625,6.66210938 L50.0742188,8.6484375 L48.5332031,8.6484375 L51.7558594,0.1171875 L53.0859375,0.1171875 L56.3144531,8.6484375 L54.7675781,8.6484375 L54.0703125,6.66210938 Z M51.1816406,5.46679688 L53.6542969,5.46679688 L52.4179688,1.92773438 L51.1816406,5.46679688 Z" id="Shape"></path>
                    <path d="M57.28125,8.6484375 L57.28125,0.1171875 L59.8007812,0.1171875 C60.5546875,0.1171875 61.2236328,0.28515625 61.8076172,0.62109375 C62.3916016,0.95703125 62.84375,1.43359375 63.1640625,2.05078125 C63.484375,2.66796875 63.6445312,3.375 63.6445312,4.171875 L63.6445312,4.59960938 C63.6445312,5.40820312 63.4833984,6.11914063 63.1611328,6.73242188 C62.8388672,7.34570312 62.3798828,7.81835938 61.7841797,8.15039062 C61.1884766,8.48242188 60.5058594,8.6484375 59.7363281,8.6484375 L57.28125,8.6484375 Z M58.7636719,1.3125 L58.7636719,7.46484375 L59.7304688,7.46484375 C60.5078125,7.46484375 61.1044922,7.22167969 61.5205078,6.73535156 C61.9365234,6.24902344 62.1484375,5.55078125 62.15625,4.640625 L62.15625,4.16601562 C62.15625,3.24023438 61.9550781,2.53320312 61.5527344,2.04492188 C61.1503906,1.55664062 60.5664062,1.3125 59.8007812,1.3125 L58.7636719,1.3125 Z" id="Shape"></path>
                    <path d="M71.9296875,4.60546875 C71.9296875,5.44140625 71.7851562,6.17480469 71.4960938,6.80566406 C71.2070312,7.43652344 70.7939453,7.92089844 70.2568359,8.25878906 C69.7197266,8.59667969 69.1015625,8.765625 68.4023438,8.765625 C67.7109375,8.765625 67.0947266,8.59667969 66.5537109,8.25878906 C66.0126953,7.92089844 65.5947266,7.43945312 65.2998047,6.81445313 C65.0048828,6.18945312 64.8554688,5.46875 64.8515625,4.65234375 L64.8515625,4.171875 C64.8515625,3.33984375 64.9990234,2.60546875 65.2939453,1.96875 C65.5888672,1.33203125 66.0048828,0.844726562 66.5419922,0.506835938 C67.0791016,0.168945313 67.6953125,0 68.390625,0 C69.0859375,0 69.7021484,0.166992188 70.2392578,0.500976562 C70.7763672,0.834960938 71.1914062,1.31542969 71.484375,1.94238281 C71.7773438,2.56933594 71.9257812,3.29882812 71.9296875,4.13085938 L71.9296875,4.60546875 Z M70.4472656,4.16015625 C70.4472656,3.21484375 70.2685547,2.49023438 69.9111328,1.98632812 C69.5537109,1.48242188 69.046875,1.23046875 68.390625,1.23046875 C67.75,1.23046875 67.2490234,1.48144531 66.8876953,1.98339844 C66.5263672,2.48535156 66.3417969,3.1953125 66.3339844,4.11328125 L66.3339844,4.60546875 C66.3339844,5.54296875 66.5166016,6.26757812 66.8818359,6.77929688 C67.2470703,7.29101562 67.7539062,7.546875 68.4023438,7.546875 C69.0585938,7.546875 69.5634766,7.296875 69.9169922,6.796875 C70.2705078,6.296875 70.4472656,5.56640625 70.4472656,4.60546875 L70.4472656,4.16015625 Z" id="Shape"></path>
                    <path d="M76.5410156,5.36132812 L74.8886719,5.36132812 L74.8886719,8.6484375 L73.40625,8.6484375 L73.40625,0.1171875 L76.40625,0.1171875 C77.390625,0.1171875 78.1503906,0.337890625 78.6855469,0.779296875 C79.2207031,1.22070312 79.4882812,1.859375 79.4882812,2.6953125 C79.4882812,3.265625 79.3505859,3.74316406 79.0751953,4.12792969 C78.7998047,4.51269531 78.4160156,4.80859375 77.9238281,5.015625 L79.8398438,8.57226562 L79.8398438,8.6484375 L78.2519531,8.6484375 L76.5410156,5.36132812 Z M74.8886719,4.171875 L76.4121094,4.171875 C76.9121094,4.171875 77.3027344,4.04589844 77.5839844,3.79394531 C77.8652344,3.54199219 78.0058594,3.19726562 78.0058594,2.75976562 C78.0058594,2.30273438 77.8759766,1.94921875 77.6162109,1.69921875 C77.3564453,1.44921875 76.96875,1.3203125 76.453125,1.3125 L74.8886719,1.3125 L74.8886719,4.171875 Z" id="Shape"></path>
                </g>
            </g>
        </g>
    </g>
</svg>